# AST/ASF file generated using VICON BodyLanguage
# -----------------------------------------------
:version 1.10
:name VICON
:units
  mass 1.0
  length 0.45
  angle deg
:documentation
   .ast/.asf automatically generated from VICON data using
   VICON BodyBuilder and BodyLanguage model FoxedUp or BRILLIANT.MOD
:root
   order TX TY TZ RX RY RZ
   axis XYZ
   position 0 0 0  
   orientation 0 0 0 
:bonedata
  begin
     id 1 
     name lhipjoint
     direction 0.707368 -0.647095 0.284426 
     length 2.60678 
     axis 0 0 0  XYZ
  end
  begin
     id 2 
     name lfemur
     direction 0.34202 -0.939693 0  
     length 6.63812  
     axis 0 0 20  XYZ
    dof rx ry rz
    limits (-160.0 20.0)
           (-70.0 70.0)
           (-60.0 70.0)
  end
  begin
     id 3 
     name ltibia
     direction 0.34202 -0.939693 0   
     length 7.51178   
     axis 0 0 20   XYZ
    dof rx
    limits (-10.0 170.0)
  end
  begin
     id 4 
     name lfoot
     direction 0.121251 -0.333133 0.935051   
     length 1.83716   
     axis -90 7.62852e-016 20   XYZ
    dof rx rz
    limits (-45.0 90.0)
           (-70.0 20.0)
  end
  begin
     id 5 
     name ltoes
     direction 1.53611e-011 -4.21962e-011 1   
     length 0.916133   
     axis -90 7.62852e-016 20   XYZ
    dof rx
    limits (-90.0 20.0)
  end
  begin
     id 6 
     name rhipjoint
     direction -0.692419 -0.660507 0.290321   
     length 2.55385  
     axis 0 0 0  XYZ 
  end
  begin
     id 7 
     name rfemur
     direction -0.34202 -0.939693 0   
     length 7.29079   
     axis 0 0 -20   XYZ
    dof rx ry rz
    limits (-160.0 20.0)
           (-70.0 70.0)
           (-70.0 60.0)
  end
  begin
     id 8 
     name rtibia
     direction -0.34202 -0.939693 0   
     length 7.47143   
     axis 0 0 -20   XYZ
    dof rx
    limits (-10.0 170.0)
 end
 begin
     id 9 
     name rfoot
     direction -0.119907 -0.329441 0.936532   
     length 1.79439  
     axis -90 -7.62852e-016 -20   XYZ
    dof rx rz
    limits (-45.0 90.0)
           (-20.0 70.0)
  end
  begin
     id 10 
     name rtoes
     direction -1.53571e-011 -4.21961e-011 1   
     length 0.896039   
     axis -90 -7.62852e-016 -20   XYZ
    dof rx
    limits (-90.0 20.0)
  end
  begin
     id 11 
     name lowerback
     direction 0.0367721 0.992912 -0.113016   
     length 1.73542   
     axis 0 0 0   XYZ
    dof rx ry rz
    limits (-20.0 45.0)
           (-30.0 30.0)
           (-30.0 30.0)
  end
  begin
     id 12 
     name upperback
     direction -0.000314626 0.990678 0.136227   
     length 1.7514   
     axis 0 0 0   XYZ
    dof rx ry rz
    limits (-20.0 45.0)
           (-30.0 30.0)
           (-30.0 30.0)
  end
  begin
     id 13 
     name thorax
     direction -0.0226159 0.981151 0.191917   
     length 1.71471   
     axis 0 0 0   XYZ
    dof rx ry rz
    limits (-20.0 45.0)
           (-30.0 30.0)
           (-30.0 30.0)
  end
  begin
     id 14 
     name lowerneck
     direction 0.0219333 0.998071 0.0580739   
     length 1.65882   
     axis 0 0 0   XYZ
    dof rx ry rz
    limits (-20.0 45.0)
           (-30.0 30.0)
           (-30.0 30.0)
  end
  begin
     id 15 
     name upperneck
     direction 0.0384529 0.980058 -0.194957   
     length 1.6612   
     axis 0 0 0   XYZ
    dof rx ry rz
    limits (-20.0 45.0)
           (-30.0 30.0)
           (-30.0 30.0)
  end
  begin
     id 16
     name head
     direction 0.00592123 0.997421 -0.0715234  
     length 1.68077  
     axis 0 0 0   XYZ
    dof rx ry rz
    limits (-20.0 45.0)
           (-30.0 30.0)
           (-30.0 30.0)
  end
  begin
     id 17 
     name lclavicle
     direction 0.904803 0.417826 0.0821728  
     length 3.42227  
     axis 0 0 0   XYZ
    dof ry rz
    limits (-20.0 10.0)
           (0.0 20.0)
  end
  begin
     id 18 
     name lhumerus
     direction 1 -4.48965e-011 -2.68786e-027   
     length 5.11878   
     axis -180 -30 -90   XYZ
    dof rx ry rz
    limits (-60.0 90.0)
           (-90.0 90.0)
           (-90.0 90.0)
  end
  begin
     id 19
     name lradius
     direction 1 -4.48965e-011 2.61168e-028   
     length 3.59971   
     axis -180 -30 -90   XYZ
    dof rx
    limits (-10.0 170.0)
  end
  begin
     id 20
     name lwrist
     direction 1 -4.48965e-011 1.58672e-027   
     length 1.79985   
     axis -1.65735e-015 90 90   XYZ
    dof ry
    limits (-180.0 0.0)
 end
  begin
     id 21 
     name lhand
     direction 1 -4.48942e-011 3.17344e-027   
     length 0.62877   
     axis -2.02492e-015 90 90   XYZ
    dof rx rz
    limits (-90.0 90.0)
           (-45.0 45.0)
  end
  begin
     id 22 
     name lfingers
     direction 1 -4.49011e-011 6.34687e-027   
     length 0.506931   
     axis -4.04985e-015 90 90   XYZ
    dof rx
    limits (0.0 90.0)
  end
  begin
     id 23
     name lthumb
     direction 0.707107 -6.34982e-011 0.707107   
     length 0.727854   
     axis -90 45 2.85299e-015   XYZ
    dof rx rz
    limits (-45.0 45.0)
           (-45.0 45.0)
  end
  begin
     id 24 
     name rclavicle
     direction -0.945647 0.32488 0.0143075   
     length 3.52737  
     axis 0 0 0   XYZ 
    dof ry rz
    limits (-10.0 20.0)
           (-20.0 0.0)
  end
  begin
     id 25 
     name rhumerus
     direction -1 -4.48962e-011 1.92182e-027  
     length 5.4902   
     axis -180 30 90   XYZ
    dof rx ry rz
    limits (-90.0 60.0)
           (-90.0 90.0)
           (-90.0 90.0)
  end
  begin
     id 26 
     name rradius
     direction -1 -4.48967e-011 -5.97193e-028   
     length 3.20659   
     axis -180 30 90   XYZ
    dof rx
    limits (-10.0 170.0)
  end
  begin
     id 27 
     name rwrist
     direction -1 -4.48964e-011 1.58672e-027   
     length 1.6033   
     axis -1.65735e-015 -90 -90   XYZ
    dof ry
    limits (-180.0 0.0)
  end
  begin
     id 28
     name rhand
     direction -1 -4.49006e-011 3.17344e-027   
     length 0.691885   
     axis -2.02492e-015 -90 -90   XYZ
    dof rx rz
    limits (-90.0 90.0)
           (-45.0 45.0)
  end
  begin
     id 29
     name rfingers
     direction -1 -4.48908e-011 6.34687e-027   
     length 0.557815   
     axis -4.04985e-015 -90 -90   XYZ
    dof rx
    limits (0.0 90.0)
  end
  begin
     id 30
     name rthumb
     direction -0.707107 -6.34999e-011 0.707107   
     length 0.800915   
     axis -90 -45 -2.85299e-015   XYZ
    dof rx rz
    limits (-45.0 45.0)
           (-45.0 45.0)
  end
:hierarchy
  begin
    root lhipjoint rhipjoint lowerback
    lhipjoint lfemur
    lfemur ltibia
    ltibia lfoot
    lfoot ltoes
    rhipjoint rfemur
    rfemur rtibia
    rtibia rfoot
    rfoot rtoes
    lowerback upperback
    upperback thorax
    thorax lowerneck lclavicle rclavicle
    lowerneck upperneck
    upperneck head
    lclavicle lhumerus
    lhumerus lradius
    lradius lwrist
    lwrist lhand lthumb
    lhand lfingers
    rclavicle rhumerus
    rhumerus rradius
    rradius rwrist
    rwrist rhand rthumb
    rhand rfingers
  end

#!OML:ASF I:\Actors\actors\Patient Classification 1\Patient 1\Session 1\Subject1.ASF
:FULLY-SPECIFIED
:DEGREES
1
root -0.423814 17.5047 7.90023 8.90417 -4.38392 -8.80373
lowerback 1.91937 0.386625 5.69444
upperback -10.7672 1.20345 1.98257
thorax -12.6813 0.123699 -1.16322
lowerneck -6.97767 -11.2355 -9.0161
upperneck 22.3035 -16.6603 9.00334
head 9.72365 -7.77641 2.64373
rclavicle 1.48095e-014 -5.88403e-014
rhumerus -42.5872 -20.4871 -73.7381
rradius 21.2027
rwrist 51.0008
rhand 5.89629 -28.5869
rfingers 7.12502
rthumb 31.2245 -55.9453
lclavicle 1.48095e-014 -5.88403e-014
lhumerus -42.5756 14.5585 79.2173
lradius 20.6996
lwrist -37.4066
lhand -9.70981 -12.3642
lfingers 7.12502
lthumb 16.2631 16.9737
rfemur -3.2021 27.1375 24.3299
rtibia 1.3124
rfoot -10.7525 -24.5856
rtoes -1.24225
lfemur 6.37414 -43.2453 -13.3208
ltibia -4.27121
lfoot -26.4641 52.5048
ltoes 20.8681
2
root -0.426335 17.5024 7.90028 8.96952 -4.36686 -8.89026
lowerback 1.84633 0.402579 5.77491
upperback -10.7957 1.22808 1.98817
thorax -12.6684 0.127704 -1.20386
lowerneck -7.04962 -11.2277 -8.98722
upperneck 22.4527 -16.6483 8.93029
head 9.77929 -7.76921 2.61072
rclavicle 2.08724e-015 -1.90833e-014
rhumerus -42.6321 -20.5292 -73.748
rradius 21.3158
rwrist 51.0372
rhand 5.96167 -28.5945
rfingers 7.12502
rthumb 31.2868 -55.941
lclavicle 2.08724e-015 -1.90833e-014
lhumerus -42.4962 14.1292 79.5373
lradius 20.5846
lwrist -36.0674
lhand -10.748 -12.2539
lfingers 7.12502
lthumb 15.2632 17.1629
rfemur -3.28579 27.169 24.415
rtibia 1.36388
rfoot -10.8872 -24.6402
rtoes -0.924907
lfemur 6.3535 -43.4818 -13.2077
ltibia -4.3801
lfoot -25.9499 52.9857
ltoes 20.3489
3
root -0.428178 17.5021 7.90076 8.97945 -4.3723 -8.90204
lowerback 1.81858 0.415424 5.79042
upperback -10.8049 1.24391 1.97719
thorax -12.6606 0.133107 -1.22608
lowerneck -7.12875 -11.2191 -8.91528
upperneck 22.6301 -16.6239 8.77776
head 9.8336 -7.75973 2.54562
rclavicle -1.38155e-014 1.63003e-014
rhumerus -42.6367 -20.5036 -73.7811
rradius 21.3819
rwrist 51.0107
rhand 5.86021 -28.5011
rfingers 7.12502
rthumb 31.1901 -55.8662
lclavicle -1.38155e-014 1.63003e-014
lhumerus -42.4153 13.7086 79.8645
lradius 20.4739
lwrist -34.7445
lhand -11.7437 -12.2825
lfingers 7.12502
lthumb 14.3039 17.2048
rfemur -3.30391 27.136 24.427
rtibia 1.35552
rfoot -10.8164 -24.6308
rtoes -1.09467
lfemur 6.35678 -43.5621 -13.1994
ltibia -4.4707
lfoot -25.2345 53.3534
ltoes 19.5636
4
root -0.430488 17.5027 7.90179 8.94444 -4.37455 -8.93848
lowerback 1.81888 0.421794 5.82252
upperback -10.7904 1.25413 1.97282
thorax -12.6429 0.135142 -1.2501
lowerneck -7.23241 -11.229 -8.84957
upperneck 22.8195 -16.6293 8.64119
head 9.90219 -7.76175 2.48066
rclavicle -2.98177e-015 -4.37326e-015
rhumerus -42.6296 -20.5 -73.8137
rradius 21.4175
rwrist 50.9767
rhand 5.45133 -28.3532
rfingers 7.12502
rthumb 30.8004 -55.7925
lclavicle -2.98177e-015 -4.37326e-015
lhumerus -42.3417 13.2523 80.2129
lradius 20.3947
lwrist -33.3401
lhand -12.7347 -12.3318
lfingers 7.12502
lthumb 13.349 17.2206
rfemur -3.26454 27.1059 24.4978
rtibia 1.35703
rfoot -10.7679 -24.6066
rtoes -1.26804
lfemur 6.47629 -43.7506 -13.25
ltibia -4.57196
lfoot -24.6253 53.8044
ltoes 18.7579
5
root -0.436138 17.5067 7.90934 9.00749 -4.34231 -8.82992
lowerback 1.57765 0.424529 5.66364
upperback -10.7799 1.22019 1.93287
thorax -12.4807 0.136468 -1.1997
lowerneck -7.32398 -11.2407 -8.86225
upperneck 22.9697 -16.6568 8.64191
head 9.9774 -7.76822 2.47138
rclavicle -7.7526e-015 2.26615e-014
rhumerus -42.4864 -20.3551 -73.974
rradius 21.2588
rwrist 50.7212
rhand 5.25276 -28.4016
rfingers 7.12502
rthumb 30.611 -55.8765
lclavicle -7.7526e-015 2.26615e-014
lhumerus -42.2653 12.7454 80.5773
lradius 20.3443
lwrist -31.9162
lhand -13.695 -12.2496
lfingers 7.12502
lthumb 12.4232 17.3612
rfemur -3.25873 27.2316 24.3779
rtibia 1.26794
rfoot -10.8179 -24.7529
rtoes -0.332282
lfemur 6.44277 -43.9983 -13.3585
ltibia -4.64741
lfoot -23.9021 54.2594
ltoes 17.8293
6
root -0.444052 17.5136 7.92264 9.2242 -4.30407 -8.52069
lowerback 1.04965 0.429833 5.25182
upperback -10.7944 1.14631 1.85282
thorax -12.1714 0.143952 -1.04565
lowerneck -7.39783 -11.2447 -8.95303
upperneck 23.085 -16.6887 8.75987
head 10.056 -7.7729 2.51412
rclavicle 6.75868e-015 4.77083e-015
rhumerus -42.1985 -20.0424 -74.236
rradius 20.8725
rwrist 50.2963
rhand 5.33195 -28.5682
rfingers 7.12502
rthumb 30.6865 -56.0289
lclavicle 6.75868e-015 4.77083e-015
lhumerus -42.1544 11.7741 81.3601
lradius 20.2597
lwrist -29.1258
lhand -15.648 -12.2363
lfingers 7.12502
lthumb 10.5397 17.4794
rfemur -3.38791 27.4397 23.9456
rtibia 1.08625
rfoot -10.8267 -25.0087
rtoes 1.35466
lfemur 6.14852 -44.3237 -13.5325
ltibia -4.77796
lfoot -22.1805 55.0587
ltoes 15.8012
7
root -0.448711 17.5162 7.92771 9.37568 -4.30062 -8.39744
lowerback 0.752763 0.462594 5.07427
upperback -10.8004 1.14963 1.78806
thorax -11.9928 0.162994 -1.01549
lowerneck -7.49235 -11.2877 -8.87532
upperneck 23.1359 -16.7635 8.76182
head 10.0929 -7.79563 2.48581
rclavicle 1.03368e-014 1.39149e-014
rhumerus -42.0633 -20.0324 -74.3371
rradius 20.6586
rwrist 50.1438
rhand 5.38352 -28.6094
rfingers 7.12502
rthumb 30.7357 -56.0609
lclavicle 1.03368e-014 1.39149e-014
lhumerus -42.1059 11.7167 81.2649
lradius 20.1975
lwrist -29.2313
lhand -15.6211 -12.2868
lfingers 7.12502
lthumb 10.5657 17.4276
rfemur -3.52774 27.5042 23.738
rtibia 1.01694
rfoot -10.7793 -25.0989
rtoes 2.11357
lfemur 5.92402 -44.4007 -13.5201
ltibia -4.74437
lfoot -22.3559 55.0942
ltoes 15.8939
8
root -0.450444 17.5148 7.92559 9.42372 -4.32213 -8.47683
lowerback 0.733411 0.516913 5.16224
upperback -10.7961 1.22309 1.7356
thorax -11.9703 0.187289 -1.12902
lowerneck -7.58095 -11.3547 -8.58992
upperneck 23.0757 -16.8562 8.62591
head 10.0571 -7.82636 2.37933
rclavicle -1.13307e-014 -1.55052e-014
rhumerus -42.0995 -20.3315 -74.2985
rradius 20.6305
rwrist 50.2111
rhand 5.33696 -28.5792
rfingers 7.12502
rthumb 30.6913 -56.0391
lclavicle -1.13307e-014 -1.55052e-014
lhumerus -42.0442 11.6162 81.1535
lradius 20.1187
lwrist -29.3342
lhand -15.6082 -12.3464
lfingers 7.12502
lthumb 10.5781 17.3674
rfemur -3.6073 27.4622 23.8055
rtibia 1.0397
rfoot -10.7093 -25.0533
rtoes 2.04606
lfemur 5.85002 -44.3761 -13.3658
ltibia -4.73367
lfoot -22.5744 55.0544
ltoes 16.0154
9
root -0.452277 17.5141 7.92446 9.44677 -4.34616 -8.53271
lowerback 0.73816 0.544304 5.21061
upperback -10.7951 1.26182 1.71271
thorax -11.9691 0.199934 -1.18491
lowerneck -7.63056 -11.3857 -8.44447
upperneck 22.9781 -16.8995 8.59176
head 10.0185 -7.83834 2.33818
rclavicle -2.37548e-014 4.37326e-014
rhumerus -42.1274 -20.4768 -74.2927
rradius 20.6041
rwrist 50.2254
rhand 5.27657 -28.5918
rfingers 7.12502
rthumb 30.6337 -56.0625
lclavicle -2.37548e-014 4.37326e-014
lhumerus -42.0529 11.6443 81.0144
lradius 20.0685
lwrist -29.4231
lhand -15.5956 -12.4661
lfingers 7.12502
lthumb 10.5902 17.247
rfemur -3.64331 27.4411 23.8587
rtibia 1.04167
rfoot -10.6597 -25.0041
rtoes 1.90308
lfemur 5.82444 -44.3678 -13.2738
ltibia -4.73229
lfoot -22.7061 55.0482
ltoes 16.0941
10
root -0.454083 17.515 7.92278 9.42324 -4.3633 -8.53685
lowerback 0.792666 0.54402 5.19218
upperback -10.7813 1.26455 1.72335
thorax -11.9866 0.203504 -1.16412
lowerneck -7.63707 -11.3912 -8.52292
upperneck 22.8572 -16.9105 8.71243
head 9.99669 -7.84041 2.38963
rclavicle 6.95746e-015 3.97569e-015
rhumerus -42.0989 -20.4232 -74.3284
rradius 20.5985
rwrist 50.138
rhand 5.27298 -28.6374
rfingers 7.12502
rthumb 30.6303 -56.1086
lclavicle 6.95746e-015 3.97569e-015
lhumerus -42.0817 11.6973 80.9822
lradius 20.1505
lwrist -29.6674
lhand -15.2983 -11.8355
lfingers 7.12502
lthumb 10.8771 17.8628
rfemur -3.62341 27.4414 23.8765
rtibia 1.03729
rfoot -10.6778 -24.9817
rtoes 1.91474
lfemur 5.84844 -44.392 -13.2771
ltibia -4.74137
lfoot -22.6782 55.1034
ltoes 16.0433
11
root -0.456236 17.5161 7.91986 9.38726 -4.35996 -8.54854
lowerback 0.867182 0.534512 5.17185
upperback -10.7638 1.25724 1.74702
thorax -12.0131 0.203082 -1.1273
lowerneck -7.57616 -11.3906 -8.59053
upperneck 22.671 -16.9108 8.8349
head 9.93684 -7.8409 2.44668
rclavicle -6.75868e-015 1.82882e-014
rhumerus -42.0808 -20.4192 -74.3163
rradius 20.59
rwrist 50.1169
rhand 5.24512 -28.6716
rfingers 7.12502
rthumb 30.6037 -56.1479
lclavicle -6.75868e-015 1.82882e-014
lhumerus -42.081 11.7453 81.0051
lradius 20.2901
lwrist -30.1723
lhand -14.6935 -10.4904
lfingers 7.12502
lthumb 11.4604 19.1763
rfemur -3.58836 27.4297 23.9123
rtibia 1.03065
rfoot -10.6897 -24.975
rtoes 1.97971
lfemur 5.88278 -44.46 -13.2734
ltibia -4.76644
lfoot -22.5271 55.2149
ltoes 15.9249
